<svg width="64" height="64" viewBox="0 0 64 64" fill="none" xmlns="http://www.w3.org/2000/svg">
  <rect x="1" y="1" width="62" height="62" rx="31" fill="#F5F0E7" stroke="#17271F" stroke-width="2"/>
  <path d="M21 20L43 20L48 32L43 44L21 44L16 32L21 20Z" stroke="#17271F" stroke-width="2"/>
  <path d="M21 20L32 32M43 20L32 32M48 32L32 32M43 44L32 32M21 44L32 32M16 32L32 32" stroke="#17271F" stroke-width="1.5"/>
  <circle cx="21" cy="20" r="3" fill="#D95D3F"/>
  <circle cx="43" cy="20" r="3" fill="#E5B94F"/>
  <circle cx="48" cy="32" r="3" fill="#6C88A0"/>
  <circle cx="43" cy="44" r="3" fill="#D95D3F"/>
  <circle cx="21" cy="44" r="3" fill="#E5B94F"/>
  <circle cx="16" cy="32" r="3" fill="#6C88A0"/>
  <circle cx="32" cy="32" r="4" fill="#17271F"/>
</svg>
